<?xml version="1.0" encoding="UTF-8" standalone="no"?>
<!-- Created with Inkscape (http://www.inkscape.org/) -->

<svg
   version="1.1"
   id="svg2"
   width="85.606621"
   height="69.005005"
   viewBox="0 0 85.606623 69.005006"
   sodipodi:docname="lfi.svg"
   inkscape:version="1.3 (0e150ed6c4, 2023-07-21)"
   xmlns:inkscape="http://www.inkscape.org/namespaces/inkscape"
   xmlns:sodipodi="http://sodipodi.sourceforge.net/DTD/sodipodi-0.dtd"
   xmlns="http://www.w3.org/2000/svg"
   xmlns:svg="http://www.w3.org/2000/svg">
  <defs
     id="defs6" />
  <sodipodi:namedview
     id="namedview4"
     pagecolor="#000000"
     bordercolor="#000000"
     borderopacity="0.25"
     inkscape:showpageshadow="2"
     inkscape:pageopacity="0.0"
     inkscape:pagecheckerboard="0"
     inkscape:deskcolor="#d1d1d1"
     inkscape:zoom="8"
     inkscape:cx="38.625"
     inkscape:cy="64.4375"
     inkscape:window-width="3840"
     inkscape:window-height="2099"
     inkscape:window-x="0"
     inkscape:window-y="32"
     inkscape:window-maximized="0"
     inkscape:current-layer="g8" />
  <g
     id="g8"
     inkscape:groupmode="layer"
     inkscape:label="ink_ext_XXXXXX"
     transform="matrix(1.3333333,0,0,-1.3333333,-24.279481,104.53662)">
    <g
       id="g10"
       transform="matrix(0.09915025,0.01300874,-0.01300874,0.09915025,6.8880781,-4.1637397)"
       style="fill:#000080">
      <path
         d="m 495.91,585.738 c -2.941,1.336 -5.203,3.742 -7.504,5.942 -6.164,5.929 -12.078,12.129 -18.355,17.933 -21.113,20.024 -45.18,36.77 -70.621,50.813 -38.293,20.691 -79.914,35.664 -123.032,42.105 7.747,-4.699 15.93,-8.609 23.887,-12.937 24.613,-13.168 49.406,-25.992 74.004,-39.192 25.758,-14.16 49.863,-31.683 70.07,-53.105 5.36,-6.016 10.895,-11.945 15.43,-18.617 1.965,-2.985 -1.594,-6.571 -4.719,-5.332 -3.812,1.613 -7.082,4.269 -10.652,6.347 -28.465,17.387 -60.441,28.703 -93.23,34.512 -8.454,1.379 -17.075,2.648 -25.653,1.82 4.16,-3.621 9.367,-5.586 14.278,-7.933 8.128,-3.645 16.171,-7.481 24.25,-11.239 11.152,-5.23 22.406,-10.425 32.554,-17.48 11.922,-7.871 22.555,-17.656 31.188,-29.055 33.777,16.918 70.894,26.985 108.5,30.164 30.019,2.559 60.32,-0.859 89.5,-8.062 16.656,-4.199 32.859,-10.027 48.633,-16.805 2.816,15.68 1.828,31.856 -0.942,47.473 -2.808,16.027 -7.75,31.629 -14.004,46.625 -9.929,23.551 -23.48,45.64 -40.5,64.73 -15.293,17.153 -33.156,31.993 -52.742,44 5.926,-8.215 12.668,-15.8 19.094,-23.617 8.539,-10.277 17.082,-20.574 24.804,-31.484 7.813,-10.899 14.719,-22.414 21.301,-34.094 7.688,-14.133 14.614,-28.789 19.168,-44.27 4.008,-13.05 6.047,-26.695 6.082,-40.343 0.059,-2.559 -0.945,-5.879 -3.82,-6.407 -1.981,-0.476 -3.438,1.411 -3.828,3.118 -0.91,3.992 -0.856,8.125 -1.731,12.125 -5.144,27.004 -17.972,52.215 -35.351,73.386 -17.258,21.336 -38.93,38.719 -62.16,53.161 -11.793,7.64 -24.305,14.105 -36.989,20.132 0.016,-0.183 0.035,-0.562 0.043,-0.754 0.649,-0.589 1.293,-1.187 1.957,-1.781 20.918,-16.965 43.356,-32.289 61.942,-51.941 8.054,-8.461 15.301,-17.676 21.707,-27.442 8.59,-13.082 16.566,-26.605 23.152,-40.816 3.25,-7.547 7.215,-15.109 7.567,-23.496 0,-2.262 0.503,-4.824 -0.727,-6.867 -1.195,-0.813 -2.313,0.562 -2.984,1.402 -2.692,3.957 -4.461,8.434 -6.61,12.684 -6.492,13.043 -13.801,25.691 -22.058,37.699 -14.348,20.816 -32.114,39.144 -51.707,55.066 -23.336,19.129 -49.469,34.867 -77.332,46.453 -10.707,4.278 -21.547,8.442 -32.872,10.762 4.153,-2.875 8.657,-5.195 12.957,-7.836 34.704,-19.984 67.754,-43.5 95.192,-72.851 20.371,-21.297 37.492,-45.543 52.012,-71.145 1.089,-1.941 2.234,-3.973 2.347,-6.262 -0.234,-1.39 -1.343,-2.922 -2.918,-2.726 -3.152,0.027 -5.195,2.883 -6.8,5.23 -19.262,30.797 -43.125,58.801 -71.012,82.117 -21.778,18.235 -45.746,33.973 -71.606,45.809 -22.625,10.297 -46.703,17.953 -71.519,20.367 -1.801,0.199 -3.617,0.27 -5.403,0.008 1.446,-0.695 2.926,-1.309 4.434,-1.863 16.762,-6.18 33.273,-13.082 49.152,-21.274 26.782,-13.609 51.5,-31.246 73.043,-52.183 20.45,-20.008 38.625,-42.434 53.321,-67.008 1.035,-1.887 2.578,-3.832 2.172,-6.121 -0.211,-1.965 -2.227,-3.332 -4.141,-3.055 -3.07,0.348 -5.09,3.016 -6.996,5.176 -15.539,19.398 -32.086,38.109 -50.856,54.465 -27.156,24.086 -58.23,43.758 -91.531,58.183 -24.613,10.442 -50.504,18.227 -77.101,21.336 2.918,-1.898 6.191,-3.152 9.296,-4.707 12.766,-5.797 25.805,-10.976 38.504,-16.926 27.52,-13.019 53.493,-29.496 76.371,-49.621 20.926,-18.386 39.508,-39.48 54.622,-62.902 1.593,-2.625 3.941,-5.223 3.847,-8.477 -0.148,-3.027 -3.941,-4.234 -6.375,-3.117"
         style="fill:#000080;fill-opacity:1;fill-rule:nonzero;stroke:none"
         id="path11" />
      <path
         d="m 730.43,428 c -10.692,0.043 -20.032,10.02 -19.59,20.668 -0.211,9.379 7.367,17.793 16.457,19.43 11.16,2.312 22.883,-6.66 23.641,-18.004 1.574,-11.52 -8.946,-22.75 -20.508,-22.094 z m -74.711,83.156 c -2,1.211 -1.723,4.457 0.304,5.496 1.887,1.325 4.719,-0.234 4.778,-2.492 0.484,-2.664 -3.02,-4.676 -5.082,-3.004 z m -0.832,-48.218 c -0.328,-2.305 -3.559,-3.551 -5.239,-1.829 -1.937,1.594 -1.117,5.258 1.446,5.664 2.234,0.739 4.32,-1.679 3.793,-3.835 z m -17.375,-4.657 c -2.727,-1.984 -4.918,1.61 -6.375,3.496 -13.004,18.911 -27.418,36.911 -43.817,53 -2.472,2.243 -3.164,7.297 0.387,8.856 1.973,0.789 4.148,0.043 5.664,-1.317 9.871,-7.933 18.102,-17.687 25.672,-27.785 6.84,-9.543 13.289,-19.488 17.871,-30.336 0.59,-1.836 1.836,-4.09 0.598,-5.914 z m -25.961,3.946 c -2.258,-0.243 -4,1.515 -5.66,2.746 -10.332,8.925 -20.348,18.242 -31.223,26.511 -9.43,7.5 -19.109,14.704 -29.316,21.102 -3.047,1.566 -4.008,6.871 -0.364,8.285 4.043,1.359 7.61,-1.637 10.942,-3.465 18.226,-11.586 34.851,-25.742 48.988,-42.078 2.711,-2.988 5.441,-6.019 7.543,-9.488 0.832,-1.172 0.809,-3.301 -0.91,-3.613 z m -10.633,-11.731 c -2.188,0.508 -4.117,1.699 -6.035,2.789 -13.125,8.016 -26.188,16.121 -39.559,23.723 -4.344,2.547 -8.914,4.769 -12.976,7.758 -2.77,1.992 -1.723,6.797 1.773,7.175 2.328,0.469 4.434,-0.898 6.469,-1.824 16.348,-8.363 31.984,-18.246 46.043,-30.105 2.398,-2.324 5.371,-4.321 6.859,-7.414 0.641,-1.547 -1.332,-2.407 -2.574,-2.102 z m -3.445,-40.453 c -10.504,-5.973 -20.762,-12.383 -30.985,-18.832 -2.316,-1.426 -4.383,-3.313 -6.918,-4.348 -2.125,-0.906 -5.058,0.399 -5.351,2.809 -0.446,2.031 1.16,3.676 2.683,4.719 11.801,7.593 23.914,14.984 37.188,19.707 1.633,0.371 3.601,1.32 5.105,0.109 1.325,-1.574 -0.215,-3.48 -1.722,-4.164 z m -59.653,0.199 c -0.062,3.238 3.035,5.145 5.782,5.965 11.574,3.691 23.644,5.578 35.691,6.945 3.418,0.34 6.84,0.786 10.277,0.946 1.489,-0.004 3.196,0.136 4.434,-0.879 0.594,-0.645 0.777,-1.922 -0.156,-2.387 -1.274,-0.789 -2.774,-1.09 -4.2,-1.48 -14.886,-3.387 -29.468,-8.106 -43.605,-13.872 -3.395,-1.617 -8.348,0.743 -8.223,4.762 z m 50.356,31.871 c -17.317,6.356 -34.703,12.532 -52.184,18.442 -3.125,1.16 -6.765,1.898 -8.875,4.738 -1.801,2.215 -0.547,5.828 2.078,6.754 2.633,1.16 5.418,-0.25 7.903,-1.176 15.75,-6.297 31.363,-12.973 46.636,-20.375 4.137,-2.172 8.469,-4.035 12.364,-6.641 1.152,-0.644 2.406,-2.363 0.961,-3.41 -3.063,-0.59 -6.043,0.707 -8.883,1.668 z m -65.571,50.629 c -1.695,1.313 -1.437,4.164 0.34,5.27 1.957,1.218 5,0.129 4.993,-2.407 0.562,-2.867 -3.325,-4.703 -5.333,-2.863 z m -5.886,39.196 c 0.148,-2.532 -3.203,-4.063 -5.125,-2.489 -2,1.36 -1.629,4.824 0.656,5.672 2.191,1.145 4.789,-0.785 4.469,-3.183 z m -10.93,-56.247 c -0.094,-2.937 -4.516,-3.695 -5.887,-1.3 -1.101,1.597 -0.422,4.089 1.465,4.722 2.235,1.192 4.985,-0.972 4.422,-3.422 z m -17.047,21.317 c -0.32,-2.461 -3.808,-3.297 -5.402,-1.539 -1.758,1.48 -0.934,4.707 1.152,5.433 2.422,1.118 4.946,-1.461 4.25,-3.894 z m -12.676,34.887 c 0.157,-2.723 -3.738,-4.34 -5.523,-2.29 -1.742,1.524 -0.977,4.633 1.09,5.446 2.133,1.039 4.609,-0.863 4.433,-3.156 z m -17.437,-53.348 c -0.484,-2.207 -3.629,-3.281 -5.266,-1.641 -2.05,1.489 -1.304,5.012 1.075,5.703 2.417,1.004 5.031,-1.644 4.191,-4.062 z m 97.742,73.008 c 2,1.722 5.285,0.07 5.109,-2.563 0.333,-2.711 -3.281,-4.387 -5.253,-2.719 -1.723,1.282 -1.622,4.086 0.144,5.282 z m 53.164,-6.274 c 2.207,0.864 4.52,-1.093 4.278,-3.386 0.105,-2.555 -3.387,-4.149 -5.196,-2.297 -2,1.414 -1.375,4.922 0.918,5.683 z m -171.48,-50.402 c -2.094,1.133 -1.887,4.476 0.027,5.672 2.063,1.445 5.059,-0.285 4.773,-2.797 0.387,-2.59 -2.73,-4.149 -4.8,-2.875 z m -3.254,22.855 c -0.184,-2.593 -3.887,-3.589 -5.465,-1.609 -1.695,1.531 -0.941,4.563 1.129,5.336 2.316,1.168 5,-1.301 4.336,-3.727 z m -25.168,-34.199 c -0.695,-2.527 -4.531,-2.762 -5.778,-0.582 -1.195,1.613 -0.292,3.969 1.458,4.723 2.515,1.488 5.332,-1.672 4.32,-4.141 z m -16.297,18 c -1.879,1.098 -2,4.285 -0.035,5.336 2.086,1.567 5.015,-0.207 4.918,-2.703 0.219,-2.449 -2.961,-4.059 -4.883,-2.633 z m -27.77,-19.14 c -1.566,1.41 -1.191,4.25 0.68,5.21 2.016,1.454 4.906,-0.296 4.762,-2.703 0.406,-2.804 -3.606,-4.586 -5.442,-2.507 z m -5.253,20.285 c -0.313,-2.328 -3.594,-3.032 -5.196,-1.567 -1.715,1.399 -1.262,4.407 0.692,5.36 2.476,1.445 5.363,-1.18 4.504,-3.793 z M 334.98,485.145 c -1.621,1.222 -1.558,3.964 0.059,5.164 1.938,1.765 5.34,0.136 5.098,-2.496 0.355,-2.7 -3.199,-4.223 -5.157,-2.668 z M 811.316,384.313 c -1.046,0.398 -2.093,0.839 -3.203,0.984 -6.363,0.086 -12.476,-1.871 -18.699,-2.867 6.805,5.207 14.066,10.218 18.941,17.433 1.793,2.664 1.883,6.492 -0.257,8.985 -2.043,2.519 -5.371,3.371 -8.45,3.734 -3.265,6.563 -7.394,12.742 -12.593,17.922 -4.121,4.312 -9.047,7.73 -13.938,11.09 -0.984,2.207 -1.195,4.746 -2.008,7.047 -2.769,10.261 -8.804,19.871 -17.757,25.797 -1.36,0.992 -2.981,1.66 -4.141,2.89 -1.488,5.168 -2.883,10.41 -5.348,15.231 -5.777,12.429 -15.562,22.504 -26.383,30.699 -21.492,16.109 -46.167,27.586 -71.699,35.691 -31.89,10.192 -65.535,15.067 -99.004,13.852 -33.109,-1.289 -65.906,-8.344 -96.824,-20.215 -10.918,-4.121 -21.394,-9.34 -32.39,-13.262 -14.45,-4.629 -30.071,-6.554 -45.079,-3.785 -6.3,1.402 -12.89,3.356 -17.73,7.844 -23.43,22.457 -48.688,42.883 -73.449,63.836 -17.785,14.746 -35.457,29.633 -53.43,44.168 -2.875,2.414 -6.812,3.906 -10.562,2.976 -5.5,-1.109 -9.172,-6.707 -9.317,-12.105 -0.254,-4.656 2.25,-9.184 6.07,-11.766 15.637,-10.656 31.149,-21.512 46.7,-32.285 16.996,-11.934 34.109,-23.699 50.629,-36.289 2.39,-1.902 5.218,-3.391 7.039,-5.914 1.359,-1.66 -1.161,-4.336 -2.973,-3.426 -2.801,0.996 -5.168,2.856 -7.688,4.387 -31.984,20.148 -63.8,40.566 -95.441,61.254 -2.344,1.554 -4.934,3.09 -7.844,3.027 -4.277,-0.137 -8.129,-3.238 -9.386,-7.297 -2.528,-6.332 0.851,-14.183 7.195,-16.695 36.254,-15.301 72.281,-31.215 107.348,-49.102 2.312,-1.351 5.089,-2.484 6.449,-4.937 -0.086,-1.313 -1.211,-2.137 -1.989,-3.07 -4.675,1.585 -9.039,3.949 -13.527,5.98 -29.34,13.258 -58.348,27.227 -87.656,40.547 -3.664,1.957 -7.699,3.664 -11.957,3.234 -3.5,-0.269 -6.485,-2.765 -7.828,-5.933 -2.606,-5.957 -0.344,-12.969 3.769,-17.653 2.594,-3.082 6.891,-3.168 10.5,-4.148 20.692,-5.086 41.387,-10.121 61.949,-15.715 14.625,-3.852 28.938,-8.773 43.208,-13.758 2.421,-0.511 3.48,-3.594 1.894,-5.492 -1.082,-1.523 -3.195,-0.734 -4.715,-0.598 -12.472,2.567 -24.695,6.176 -36.929,9.7 -19.75,5.8 -39.45,11.765 -59.208,17.55 -3.031,0.86 -6.019,1.922 -9.16,2.313 -4.097,0.516 -8.57,-0.426 -11.629,-3.344 -4.753,-4.172 -6.015,-11.609 -3.168,-17.211 1.618,-3.172 4.122,-6.156 7.532,-7.457 3.293,-0.859 6.746,-0.629 10.113,-0.867 16.609,-1.074 33.223,-2.078 49.812,-3.477 13.739,-1.195 27.403,-3.136 40.973,-5.562 3.84,-0.742 7.781,-1.055 11.488,-2.344 2.176,-0.719 4.086,-3.012 3.352,-5.402 -0.695,-1.77 -2.539,-3.207 -4.504,-3.024 -17.367,1.204 -34.652,3.25 -51.934,5.282 -17.835,1.984 -35.652,4.183 -53.453,6.488 -2.808,0.359 -5.707,-0.488 -8.035,-2.07 -6.574,-4.485 -7.984,-14.602 -3.246,-20.895 2.402,-3.375 6.274,-6.207 10.594,-5.828 13.047,1.605 26.121,2.91 39.191,4.211 17.332,1.59 34.625,3.473 51.973,4.875 4.953,0.277 9.914,0.961 14.883,0.594 1.476,-0.129 3.101,-0.832 3.691,-2.309 0.379,-2.008 -0.945,-4.367 -3.047,-4.711 -4.703,-0.918 -9.465,-1.422 -14.211,-2.07 -25.582,-3.27 -51.152,-6.735 -76.832,-9.168 -7.593,-0.09 -15.55,-0.738 -22.281,-4.582 -4.508,-2.535 -7.523,-7.715 -6.977,-12.934 0.512,-6.012 5.508,-11.258 11.43,-12.269 3.438,-0.614 6.969,0.093 10.207,1.281 17.188,6.391 34.332,12.891 51.629,18.98 12.668,4.543 25.535,8.625 38.711,11.403 2.184,0.742 5.293,-0.469 5.059,-3.11 -0.856,-1.886 -3.004,-2.535 -4.719,-3.386 -32.098,-13.61 -65.016,-25.153 -97.578,-37.559 -6.117,-2.469 -9.078,-9.984 -6.93,-16.105 1.984,-5.938 8.012,-10.485 14.356,-10.274 4.96,-0.074 9.164,2.863 13.585,4.672 33.872,15.18 67.321,31.316 101.633,45.516 7.828,3.136 15.703,6.703 24.25,7.269 12.321,0.957 24.676,0.016 36.989,-0.66 19.992,-1.324 39.925,-3.535 59.761,-6.367 12.371,-1.879 24.754,-3.754 36.973,-6.445 16.293,-3.469 32.613,-7.301 48.141,-13.415 2.179,-0.652 3.757,-2.535 5.91,-3.152 16.765,-0.652 33.543,-2.371 50.019,-5.652 2.106,-0.528 4.676,-0.84 5.992,-2.774 0.364,-1.183 -0.933,-1.953 -1.906,-2.101 -3.246,-0.555 -6.558,-0.254 -9.824,-0.289 -13.082,0.254 -26.164,-0.371 -39.188,-1.524 -3.976,-0.32 -7.957,-1.078 -11.949,-0.847 -3.367,0.242 -6.218,3.648 -5.011,7.015 -7.239,3.711 -15.086,6.067 -22.79,8.606 -16.437,5.211 -33.136,9.55 -49.777,14.054 -10.66,-5.074 -21.578,-9.683 -32.922,-13 -12.207,-3.679 -24.875,-5.738 -37.601,-6.371 -12.617,-0.328 -25.215,0.614 -37.778,1.664 -4.078,0.438 -8.718,-0.297 -11.617,-3.441 -1.734,-1.844 -1.75,-4.996 0.188,-6.707 3.246,-3.043 7.586,-4.547 11.75,-5.899 13.039,-3.824 26.679,-5.187 40.226,-5.496 18.563,0.442 36.965,3.844 54.774,9.004 5.679,1.43 11.265,3.653 17.179,3.817 1.61,0.246 3.61,-0.95 3.176,-2.789 -0.848,-2.051 -2.863,-3.211 -4.613,-4.403 -12.817,-8.316 -26.66,-15.109 -41.18,-19.898 -15.449,-5.172 -31.656,-7.602 -47.82,-9.195 -3.332,-0.348 -7.039,-0.727 -9.516,-3.247 -2.656,-2.496 -2.129,-7.082 0.336,-9.535 2.926,-2.953 7.336,-3.586 11.309,-3.66 7.172,0.43 14.219,1.965 21.238,3.418 29.191,6.676 57.305,17.57 84.117,30.824 3.629,1.664 7.301,3.809 11.422,3.68 1.859,0.043 3.852,-1.664 3.125,-3.645 -0.976,-2.089 -2.738,-3.656 -4.391,-5.21 -15.515,-14.063 -33.742,-24.946 -52.964,-33.129 -11.524,-4.942 -23.547,-8.555 -35.461,-12.399 -3.914,-1.297 -8.157,-2.726 -10.739,-6.156 -1.375,-1.773 -1.851,-4.91 0.219,-6.371 2.727,-2.199 6.457,-1.965 9.738,-1.692 10.055,0.922 19.766,3.915 29.317,7.04 26.418,8.851 51.75,20.91 75.379,35.683 3.672,2.215 7.636,4.984 12.16,4.242 2.066,-0.328 2.898,-2.925 1.867,-4.621 -2.676,-5.527 -7.266,-9.797 -11.359,-14.273 -19.61,-19.574 -44.539,-33.821 -71.473,-40.434 -3.324,-1.055 -7.301,-1.512 -9.605,-4.422 -1.653,-1.914 -1.176,-5.152 0.945,-6.511 2.976,-1.957 6.738,-1.325 10.051,-0.86 11.285,2.25 21.89,6.918 32.304,11.672 15.086,7.145 29.551,15.637 43.219,25.223 3.625,2.519 7.106,5.238 10.793,7.672 1.879,1.254 4.211,2 6.469,1.543 1.168,-0.59 2.32,-1.899 1.746,-3.309 -0.844,-2.277 -2.523,-4.098 -3.961,-6.012 -13.5,-16.918 -30.176,-31.058 -48.098,-43.101 -3.394,-2.528 -7.093,-4.641 -10.332,-7.383 -2.265,-1.965 -3.824,-5.664 -1.867,-8.348 1.559,-1.922 4.422,-1.844 6.594,-1.187 6.523,1.793 12.34,5.375 18.238,8.566 17.332,10.395 33.395,22.856 48.043,36.77 10.176,9.48 19.516,19.804 29.285,29.683 10.555,9.426 21.395,18.621 33.274,26.356 2.875,1.703 5.715,3.886 9.156,4.199 2.539,0.144 3.512,-3.414 1.656,-4.926 -8.179,-7.699 -16.691,-15.113 -24.219,-23.484 -2.023,-2.235 -3.035,-5.125 -4.406,-7.75 -3.906,-7.637 -7.738,-15.317 -12.035,-22.742 -5.601,-9.77 -12.519,-18.746 -20.328,-26.844 -4.633,-5.168 -9.922,-9.789 -14.07,-15.36 15.949,7.743 30.25,19.086 41.179,33.075 -1.957,-5.418 -4.929,-10.383 -7.933,-15.266 -6.266,-9.48 -13.383,-18.363 -20.762,-26.988 -6.848,-7.93 -14.059,-15.68 -19.102,-24.942 18.2,9.496 33.907,23.543 46.004,40.079 6.848,8.875 12.536,18.554 18.848,27.792 -2.145,-6.269 -4.953,-12.285 -7.723,-18.296 -5.777,-12.317 -13.472,-23.61 -21.836,-34.293 -11.566,-14.996 -24.375,-28.989 -35.808,-44.086 12.64,4.031 23.984,11.347 33.972,19.965 14.364,12.464 26.125,27.628 36.29,43.636 6.312,9.864 11.332,20.469 16.121,31.129 -0.485,-8.41 -1.215,-16.851 -3.203,-25.058 -4.52,-20.098 -18.122,-36.192 -26.946,-54.391 7.238,4.812 13.262,11.227 18.789,17.879 18.813,23.418 32.071,52.043 34.426,82.207 1.938,-0.918 3.617,-2.285 5.574,-3.176 6.797,-3.254 14.418,-4.07 21.844,-4.512 1.551,-0.156 3.016,-0.718 4.488,-1.199 11.02,-3.996 22.946,-3.976 34.504,-3.578 11.16,0.926 22.656,1.793 32.996,6.449 4.657,2.071 9.75,2.699 14.684,3.813 16.73,3.738 33.266,8.933 48.488,16.941 3.195,1.735 6.465,3.406 9.367,5.613 2.102,1.59 3.895,4.438 2.414,7.04"
         style="fill:#000080;fill-opacity:1;fill-rule:nonzero;stroke:none"
         id="path10" />
      <path
         d="m 727.195,457.438 c -4.34,-1.817 -7.101,-7 -5.718,-11.586 1.074,-4.567 5.812,-7.832 10.48,-7.098 5.445,0.301 9.859,5.863 8.789,11.246 -0.887,6.008 -7.996,9.926 -13.551,7.438"
         style="fill:#000080;fill-opacity:1;fill-rule:nonzero;stroke:none"
         id="path9" />
    </g>
    <path
       id="rect5"
       style="fill:#000080;stroke-width:0.799372;stroke-dasharray:0.799372, 0.799372"
       d="m 53.717286,-58.782226 v 2.816895 h 8.232423 v -2.816895 z m 10.847169,1.918946 v 7.703613 h 2.15039 v -7.703613 z m -18.505372,0.688476 v 2.790528 H 33.270997 v 6.112793 h 17.793457 v -3.509766 h 2.188477 v -5.393555 z m 24.883302,4.095704 v 5.228027 h 4.96875 V -52.0791 Z"
       transform="scale(1,-1)" />
    <rect
       style="fill:#000080;stroke-width:0.31774;stroke-dasharray:0.31774, 0.31774"
       id="rect11"
       width="12.244769"
       height="1.9799222"
       x="1.0826116"
       y="-81.736519"
       transform="matrix(0.71698924,-0.69708423,-0.69708423,-0.71698924,0,0)" />
    <path
       style="fill:#ffffff;stroke-width:0.0166535;stroke-dasharray:0.0166535, 0.0166535"
       d="m 57.455612,38.359239 c -0.199628,-0.05595 -0.412756,-0.187911 -1.752487,-1.085106 -1.840094,-1.232279 -2.186093,-1.452229 -3.570313,-2.269641 -1.487931,-0.878657 -2.633298,-1.497686 -3.679687,-1.988738 -0.141797,-0.06654 -0.308762,-0.145078 -0.371032,-0.174522 -0.189411,-0.08956 -0.333276,-0.263336 -0.386187,-0.466473 -0.137829,-0.529162 0.366185,-0.820994 1.038469,-0.601289 0.371213,0.121313 1.459568,0.635677 2.264751,1.070335 1.933889,1.043963 3.710091,2.263789 5.314549,3.649823 0.07369,0.06366 0.284627,0.245825 0.468743,0.404809 0.508297,0.438916 0.979038,0.917999 1.06314,1.081982 0.01651,0.0322 0.03429,0.08968 0.03951,0.127731 0.01203,0.08779 -0.03509,0.192517 -0.105279,0.233978 -0.06544,0.03866 -0.21847,0.04674 -0.324176,0.01711 z"
       id="path12"
       transform="matrix(0.75000002,0,0,-0.75000002,18.209611,78.402471)" />
    <path
       style="fill:#ffffff;stroke-width:0.0166535;stroke-dasharray:0.0166535, 0.0166535"
       d="m 56.375,40.076382 c -0.270426,-0.05869 -0.343046,-0.08855 -1.960938,-0.806201 -2.432802,-1.079126 -3.958743,-1.731829 -5.015625,-2.145374 -0.6618,-0.258955 -1.19472,-0.512087 -1.306518,-0.620583 -0.08963,-0.08698 -0.144194,-0.212426 -0.151547,-0.348423 -0.0072,-0.132732 0.01112,-0.206803 0.07873,-0.318679 0.118041,-0.195341 0.398657,-0.289912 0.681712,-0.229745 0.349603,0.07431 1.69161,0.57941 2.73669,1.03002 1.72283,0.742837 3.430656,1.659811 4.630988,2.486491 0.387603,0.266946 0.534268,0.386255 0.659924,0.536837 0.146291,0.17531 0.160265,0.250603 0.06384,0.34393 -0.09985,0.09664 -0.21292,0.116073 -0.417247,0.07173 z"
       id="path13"
       transform="matrix(0.75000002,0,0,-0.75000002,18.209611,78.402471)" />
    <path
       style="fill:#ffffff;stroke-width:0.0166535;stroke-dasharray:0.0166535, 0.0166535"
       d="m 55.601562,41.543863 c -0.170904,-0.02239 -0.513482,-0.09327 -1.376852,-0.284845 -2.28852,-0.507812 -3.659153,-0.798447 -5.872636,-1.245261 -0.618469,-0.124844 -1.191516,-0.248305 -1.273438,-0.274356 -0.356648,-0.113418 -0.605912,-0.302289 -0.68143,-0.516329 -0.01221,-0.03462 -0.02221,-0.114965 -0.02221,-0.178552 0,-0.212821 0.09036,-0.384708 0.263642,-0.501516 0.241601,-0.162859 0.463504,-0.169213 1.02542,-0.02936 1.26912,0.315859 3.169829,0.839886 4.484375,1.236347 1.404654,0.423636 2.895024,0.920099 3.46875,1.15549 0.485557,0.199215 0.614304,0.290204 0.629142,0.444632 0.01049,0.109141 -0.03098,0.149136 -0.187077,0.180432 -0.109666,0.02199 -0.340322,0.0287 -0.45769,0.01332 z"
       id="path14"
       transform="matrix(0.75000002,0,0,-0.75000002,18.209611,78.402471)" />
    <path
       style="fill:#ffffff;stroke-width:0.0166535;stroke-dasharray:0.0166535, 0.0166535"
       d="m 49.414062,47.088022 c -0.341517,-0.09813 -0.54364,-0.371315 -0.518774,-0.701148 0.02086,-0.276665 0.221307,-0.518008 0.58444,-0.703672 0.62287,-0.318464 1.775132,-0.756308 2.824959,-1.073446 0.866283,-0.261691 2.33291,-0.637403 3.054688,-0.782531 0.285245,-0.05735 0.566012,-0.0624 0.674792,-0.01214 0.110252,0.05095 0.165635,0.176834 0.120947,0.274913 -0.04106,0.09013 -0.290667,0.217575 -0.813458,0.415359 -1.711452,0.647483 -3.448087,1.464399 -5.140191,2.417956 -0.15019,0.08464 -0.297997,0.156256 -0.350939,0.170046 -0.119104,0.03102 -0.318403,0.02858 -0.436464,-0.0053 z"
       id="path19"
       transform="matrix(0.75000002,0,0,-0.75000002,18.209611,78.402471)" />
    <path
       style="fill:#ffffff;stroke-width:0.0166535;stroke-dasharray:0.0166535, 0.0166535"
       d="m 51.798933,49.28869 c -0.209016,-0.04365 -0.345685,-0.17972 -0.392582,-0.390861 -0.02666,-0.120043 0.0078,-0.25303 0.100952,-0.390017 0.08825,-0.129715 0.125163,-0.164334 0.586447,-0.549952 1.603171,-1.340198 2.807888,-2.189869 4,-2.821145 0.492915,-0.26102 0.760832,-0.3044 0.879514,-0.142406 0.04426,0.06042 0.05217,0.170811 0.01854,0.258864 -0.04021,0.105282 -0.122195,0.186117 -0.413379,0.407566 -1.101264,0.837528 -3.338335,2.653668 -3.884567,3.153642 -0.454155,0.415695 -0.658077,0.523773 -0.894927,0.474309 z"
       id="path20"
       transform="matrix(0.75000002,0,0,-0.75000002,18.209611,78.402471)" />
    <path
       style="fill:#ffffff;stroke-width:0.807386;stroke-dasharray:0.807386, 0.807386"
       d="m 54.516894,46.539495 c 0,0 -0.880514,-0.142175 -1.101438,-0.783116"
       id="path21" />
    <path
       style="fill:#ffffff;stroke-width:0.00416339;stroke-dasharray:0.00416339, 0.00416339"
       d="m 47.605887,44.345432 c -0.135479,-0.01535 -0.262096,-0.06473 -0.381278,-0.148707 -0.04372,-0.03081 -0.136819,-0.123346 -0.167201,-0.166203 -0.06619,-0.09337 -0.103922,-0.181338 -0.121991,-0.284428 -0.012,-0.06846 -0.0074,-0.211173 0.0073,-0.229822 0.0025,-0.0031 0.331131,-0.23539 0.730331,-0.516127 l 0.725816,-0.510432 0.123793,-0.01123 c 1.640271,-0.148768 3.308602,-0.212196 4.824964,-0.183439 0.58326,0.01106 1.231423,0.03774 1.708985,0.07035 0.08206,0.0056 0.321179,0.02993 0.386718,0.03935 0.218983,0.03145 0.368252,0.09237 0.474862,0.193797 0.02913,0.02771 0.03477,0.03524 0.04101,0.05469 0.01518,0.0473 0.0064,0.10148 -0.024,0.147553 -0.02838,0.04307 -0.0903,0.0932 -0.146658,0.118758 -0.04907,0.02225 -0.213891,0.06638 -0.351079,0.09399 -0.159243,0.03206 -0.306654,0.0527 -0.684019,0.09577 -0.0851,0.0097 -0.187929,0.02206 -0.228515,0.02744 -0.04059,0.0054 -0.150259,0.01862 -0.243716,0.02942 -1.523855,0.176072 -3.116597,0.449942 -4.905589,0.843509 -0.245087,0.05392 -0.27023,0.05983 -0.598291,0.140658 -0.369044,0.09093 -0.513455,0.122649 -0.701198,0.154027 -0.21234,0.03549 -0.385852,0.05065 -0.470285,0.04108 z"
       id="path22"
       transform="matrix(0.75000002,0,0,-0.75000002,18.209611,78.402471)" />
  </g>
</svg>
